<svg data-v-0dd9719b="" version="1.0" xmlns="http://www.w3.org/2000/svg" xmlns:xlink="http://www.w3.org/1999/xlink" width="100%" height="100%" viewBox="0 0 340.000000 250.000000" preserveAspectRatio="xMidYMid meet" color-interpolation-filters="sRGB" style="margin: auto;"> <rect data-v-0dd9719b="" x="0" y="0" width="100%" height="100%" fill="#fff" fill-opacity="1" class="background"></rect> <rect data-v-0dd9719b="" x="0" y="0" width="100%" height="100%" fill="url(#watermark)" fill-opacity="1" class="watermarklayer"></rect> <g data-v-0dd9719b="" fill="#333" class="icon-text-wrapper icon-svg-group iconsvg" transform="translate(49.76000213623047,94.95583534240723)"><g class="iconsvg-imagesvg" transform="translate(0,0)"><g><rect fill="#333" fill-opacity="0" stroke-width="2" x="0" y="0" width="60" height="60.08832984487196" class="image-rect"></rect> <svg x="0" y="0" width="60" height="60.08832984487196" filtersec="colorsb92817237" class="image-svg-svg primary" style="overflow: visible;"><svg xmlns="http://www.w3.org/2000/svg" viewBox="-0.001293182373046875 0.002758026123046875 99.85157775878906 99.99821472167969"><g fill-rule="evenodd"><path d="M46.48 18.63l1.23-.71.62-.35.49-.27C81.4-.63 110.38 7.82 87.5 44.17c-.64 1-1.33 2.08-2.06 3.15-.86-1.47-1.76-2.94-2.73-4.41l-.34-.68q1-1.53 1.86-2.91c12.24-21-17.45-17.65-50.13 3.41l-1-2a29.42 29.42 0 0 1-1.46-3.48c-.79-2.27-1.44-4.44-1.93-6.47a112.67 112.67 0 0 1 12.8-9.7l1.49-.94.62-.38c.62-.39 1.23-.76 1.85-1.12zM18.59 53.76a109.86 109.86 0 0 0 12.85 17.76 47.53 47.53 0 0 0 8.69-3.3l2.92-1.46a141.32 141.32 0 0 1-13.54-26.32 74.21 74.21 0 0 1-3.22-10.75C23.38 15.68 28 8.86 41.72 17.92q2.53-1.61 5.11-3.05C10.23-9.6.2 16.24 15.34 47.61q1.47 3.05 3.25 6.15zm51.86 16.73c-.32-1.29-.71-2.69-1.19-4.23a48.42 48.42 0 0 0-2.76-6.82l-.45-.89c-34.1 22-64.95 24.71-48.27.51a94.943 94.943 0 0 1-3.12-5c-25.42 37.37.92 47.55 32.69 32a98.59 98.59 0 0 0 11.13-6.41 111 111 0 0 0 11.97-9.16zm11.11-23a110.89 110.89 0 0 0-12.84-17.74q-2.58.7-5.51 1.72l-6.1 3A141.2 141.2 0 0 1 70.7 61c.07.19.14.37.2.56s.19.49.27.73.2.56.29.83c.34 1 .65 1.91.93 2.83.06.18.11.36.16.54l.14.47c.06.22.13.44.19.65.05.17.1.34.14.51.33 1.21.61 2.37.84 3.49 2.91 14-1.73 20.8-15.42 11.75l-5.11 3C89.93 110.87 100 85 84.82 53.67q-1.47-3.04-3.26-6.14z" fill="#15355c"></path><path d="M49 13.47l-.48.27c-1.19-.79-2.35-1.53-3.48-2.21.61-.38 1.22-.75 1.83-1.1l1.23-.7.62-.36.49-.27C75.2-5.2 98.87-2.75 95.86 17.22 94.9 1.36 72.93.31 49 13.47zM10 53.22c.65 1.12 1.33 2.24 2 3.37.67-1.07 1.38-2.16 2.14-3.28q-1.74-3-3.18-6C.34 25.12 2.21 5.71 17.15 4.88-1.61 2.1-4.85 23 6.79 47.07q1.47 3.05 3.26 6.15zm37 36.6c-20.31 9.93-38.39 9.36-42.17-2.1 1.39 14.46 20.81 16.06 42.85 5.28 2.33-1.14 4.68-2.41 7.06-3.83q-1.43-.87-2.91-1.86-2.41 1.34-4.83 2.51zM93 54.1q-1.47-3-3.26-6.14l-1-1.67-.11.17c-.63 1-1.31 2-2 3.08.8 1.46 1.55 2.92 2.25 4.36 10.71 22.19 8.82 41.62-6.17 42.41C101.47 99 104.69 78.19 93.06 54.1z" fill="#009ed6"></path></g></svg></svg> <!----></g></g> <g transform="translate(67,1.9479179382324219)"><g data-gra="path-name" fill-rule="" class="tp-name iconsvg-namesvg" transform="translate(0,0)"><g transform="scale(1)"><g><path d="M15.12 4.18C14.35 4.18 13.59 4.05 12.96 3.73 11.56 3.15 10.57 2.11 9.95 0.77 9.63 0.04 9.49-0.67 9.49-1.44L9.49-17.05 4.18-17.05C3.38-17.05 2.7-17.77 2.7-18.54L2.7-18.63C2.7-19.44 3.38-20.11 4.18-20.11L9.49-20.11 9.49-34.88C9.49-35.68 10.17-36.36 10.98-36.36L11.07-36.36C11.88-36.36 12.51-35.68 12.51-34.88L12.51-20.11 40.99-20.11C41.8-20.11 42.48-19.44 42.48-18.63L42.48-18.54C42.48-17.77 41.8-17.05 40.99-17.05L28.17-17.05 41.09 0.99C41.58 1.67 41.45 2.56 40.81 3.06L40.73 3.1C40 3.6 39.1 3.46 38.61 2.79L24.75-16.52C24.61-16.7 24.57-16.88 24.52-17.05L12.51-17.05 12.51-1.44C12.51-0.67 12.78-0.09 13.28 0.4 13.77 0.9 14.4 1.13 15.12 1.13L20.07 1.13C20.88 1.13 21.55 1.84 21.55 2.61L21.55 2.7C21.55 3.51 20.88 4.18 20.07 4.18ZM39.78-32.17C36.41-30.15 32.8-28.48 28.98-27.18 25.11-25.88 21.15-24.79 17.01-24.03 16.2-23.85 15.43-24.39 15.3-25.2 15.12-26.05 15.66-26.77 16.47-26.95 20.38-27.68 24.21-28.71 27.9-29.97 31.59-31.23 35.01-32.85 38.16-34.78 38.88-35.19 39.78-34.96 40.18-34.34L40.23-34.29C40.68-33.57 40.5-32.63 39.78-32.17ZM87.34-14.4C87.48-13.59 86.98-12.78 86.17-12.6L86.09-12.6C85.28-12.46 84.51-12.96 84.33-13.72L80.19-32.22C80.06-33.07 80.55-33.84 81.31-34.02L81.36-34.06C82.17-34.2 82.98-33.7 83.12-32.89ZM66.42-32.4C66.15-28.75 65.7-25.33 64.98-22.09 64.35-18.99 63.45-16.11 62.33-13.37 62.14-13 61.88-12.69 61.47-12.55 61.11-12.42 60.7-12.42 60.34-12.6L60.25-12.6C59.53-12.96 59.17-13.77 59.49-14.54 60.57-17.1 61.42-19.89 62.01-22.86 62.69-25.88 63.13-29.11 63.36-32.67 63.45-33.44 64.17-34.06 64.94-34.02L65.03-34.02C65.84-33.98 66.47-33.25 66.42-32.4ZM86.13-8.05C84.6-6.61 82.98-5.26 81.41-4.14 75.15 0.36 68.27 2.56 60.62 3.82 59.8 4 59.04 3.42 58.95 2.61L58.91 2.52C58.77 1.67 59.31 0.94 60.12 0.81 67.32-0.4 73.84-2.56 79.65-6.71 81.13-7.74 82.62-8.96 84.06-10.26 84.69-10.84 85.59-10.8 86.17-10.17L86.22-10.17C86.49-9.81 86.63-9.49 86.63-9.09 86.63-8.69 86.44-8.28 86.13-8.05ZM71.82-35.1C71.82-35.91 72.5-36.59 73.31-36.59L73.39-36.59C74.2-36.59 74.88-35.91 74.88-35.1L74.88-8.1C74.88-7.25 74.2-6.61 73.39-6.61L73.31-6.61C72.5-6.61 71.82-7.25 71.82-8.1ZM50.67 2.83C50.31 3.6 49.41 3.87 48.65 3.51L48.6 3.46C47.88 3.1 47.61 2.16 47.97 1.44L53.77-9.99C54.13-10.71 55.03-11.03 55.8-10.66L55.89-10.62C56.61-10.17 56.92-9.31 56.52-8.59ZM53.28-16.34C53.28-15.52 52.56-14.85 51.8-14.85L51.7-14.85C50.89-14.85 50.22-15.52 50.22-16.34L50.22-21.82C50.22-22.63 50.89-23.31 51.7-23.31L51.8-23.31C52.56-23.31 53.28-22.63 53.28-21.82ZM53.28-28.8C53.28-27.99 52.56-27.31 51.8-27.31L51.7-27.31C50.89-27.31 50.22-27.99 50.22-28.8L50.22-34.24C50.22-35.1 50.89-35.73 51.7-35.73L51.8-35.73C52.56-35.73 53.28-35.1 53.28-34.24ZM129.01-35.46C129.47-35.46 129.82-35.32 130.09-35.05 130.45-34.78 130.59-34.47 130.59-34.02L130.59-33.98C130.68-33.12 130-32.45 129.24-32.4L114.12-31.45 114.12-17.23 131.18-17.23C131.99-17.23 132.66-16.56 132.66-15.75L132.66-15.66C132.66-14.85 131.99-14.17 131.18-14.17L114.12-14.17 114.12 2.75C114.12 3.55 113.4 4.23 112.63 4.23L112.55 4.23C111.73 4.23 111.06 3.55 111.06 2.75L111.06-14.17 93.92-14.17C93.11-14.17 92.43-14.85 92.43-15.66L92.43-15.75C92.43-16.56 93.11-17.23 93.92-17.23L111.06-17.23 111.06-31.23 96.12-30.33C95.67-30.33 95.36-30.46 95.04-30.69 94.72-31 94.59-31.32 94.55-31.72L94.55-31.81C94.5-32.63 95.13-33.34 95.94-33.39ZM169.56-25.92C170.37-25.92 171.05-25.24 171.05-24.43L171.05-24.34C171.05-23.54 170.37-22.86 169.56-22.86L162.9-22.86 162.9-17.95 173.75-17.95C174.6-17.95 175.23-17.28 175.23-16.47L175.23-16.38C175.23-15.62 174.6-14.89 173.75-14.89L162.9-14.89 162.9-6.34C162.9-5.58 162.76-4.86 162.45-4.14 161.91-2.79 160.88-1.75 159.44-1.17 158.81-0.9 158.04-0.72 157.28-0.72L156.33-0.72C155.52-0.72 154.84-1.4 154.84-2.21L154.84-2.29C154.84-3.1 155.52-3.78 156.33-3.78L157.28-3.78C158-3.78 158.63-4 159.12-4.5 159.62-5 159.88-5.63 159.88-6.34L159.88-14.89 148.28-14.89C147.47-14.89 146.79-15.62 146.79-16.38L146.79-16.47C146.79-17.28 147.47-17.95 148.28-17.95L159.88-17.95 159.88-22.86 152.5-22.86C151.65-22.86 151.02-23.54 151.02-24.34L151.02-24.43C151.02-25.24 151.65-25.92 152.5-25.92ZM144.85 4.05C144.09 4.05 143.37 3.87 142.69 3.6 141.3 3.01 140.31 1.98 139.72 0.58 139.37-0.09 139.28-0.81 139.28-1.57L139.28-23.94C139.28-24.75 139.91-25.43 140.76-25.43L140.81-25.43C141.62-25.43 142.29-24.75 142.29-23.94L142.29-1.57C142.29-0.85 142.56-0.22 143.06 0.27 143.55 0.77 144.18 0.99 144.85 0.99L174.69 0.99C175.5 0.99 176.18 1.67 176.18 2.48L176.18 2.56C176.18 3.38 175.5 4.05 174.69 4.05ZM149.4-32.45C149.81-33.66 150.48-34.56 151.34-35.19 152.19-35.77 153.41-36.09 154.94-36.09L167.13-36.09C168.62-36.09 169.78-35.77 170.69-35.19 171.54-34.56 172.22-33.66 172.66-32.45L175.63-24.7C175.91-23.94 175.5-23.09 174.74-22.77L174.64-22.77C173.88-22.5 173.03-22.86 172.71-23.63L169.78-31.41C169.56-31.9 169.25-32.27 168.75-32.58 168.34-32.89 167.81-33.03 167.13-33.03L154.94-33.03C154.22-33.03 153.68-32.89 153.22-32.58 152.82-32.27 152.5-31.9 152.28-31.41L149.26-23.63C149-22.86 148.14-22.5 147.38-22.77L147.28-22.77C146.52-23.09 146.16-23.94 146.43-24.7ZM153.13-12.11C152.87-10.39 152.5-8.82 151.97-7.25 151.47-5.58 150.71-4 149.72-2.29 149.53-1.93 149.22-1.67 148.81-1.57 148.41-1.48 148-1.53 147.65-1.8L147.6-1.84C146.93-2.25 146.7-3.1 147.15-3.82 147.96-5.26 148.59-6.75 149.09-8.19 149.49-9.58 149.85-11.07 150.12-12.6 150.21-13.37 150.93-13.95 151.74-13.81L151.88-13.81C152.28-13.77 152.59-13.59 152.87-13.28 153.09-12.87 153.18-12.51 153.13-12.11ZM175.19-3.69C175.45-2.92 175.05-2.07 174.28-1.8L174.19-1.8C173.47-1.53 172.62-1.93 172.35-2.7L169.16-11.88C168.88-12.69 169.29-13.54 170.1-13.81L170.14-13.81C170.91-14.08 171.72-13.68 172.03-12.87ZM142.29-29.7C142.29-28.89 141.62-28.21 140.81-28.21L140.76-28.21C139.91-28.21 139.28-28.89 139.28-29.7L139.28-34.47C139.28-35.28 139.91-35.95 140.76-35.95L140.81-35.95C141.62-35.95 142.29-35.28 142.29-34.47Z" transform="translate(-2.700000047683716, 36.59000015258789)"></path></g> <!----> <!----> <!----> <!----> <!----> <!----> <!----></g></g> <g data-gra="path-slogan" fill-rule="" class="tp-slogan iconsvg-slogansvg" fill="#333" transform="translate(5,46.81999969482422)"><rect x="0" height="1" y="4.185000419616699" width="21.34499740600586"></rect> <rect height="1" y="4.185000419616699" width="21.34499740600586" x="142.1349983215332"></rect> <g transform="translate(24.34499740600586,0)"><g transform="scale(1)"><path d="M8.06-6.05L8.06-6.05L6.94-6.05Q6.52-7.78 4.55-7.83L4.55-7.83Q1.83-7.69 1.73-4.36L1.73-4.36Q1.73-0.80 4.59-0.80L4.59-0.80Q6.56-0.84 7.03-3.19L7.03-3.19L8.16-3.19Q7.64 0.05 4.36 0.14L4.36 0.14Q0.61 0 0.52-4.31L0.52-4.31Q0.70-8.63 4.55-8.81L4.55-8.81Q7.59-8.72 8.06-6.05ZM10.69-5.06L15.19-5.06L15.19-8.58L16.36-8.58L16.36 0L15.19 0L15.19-3.98L10.69-3.98L10.69 0L9.52 0L9.52-8.58L10.69-8.58L10.69-5.06ZM23.81 0L22.97-2.48L19.50-2.48L18.61 0L17.44 0L20.67-8.58L21.98-8.58L25.08 0L23.81 0ZM21.23-7.31L19.88-3.52L22.55-3.52L21.28-7.31L21.23-7.31ZM27.52-8.58L31.83-1.64L31.83-8.58L32.95-8.58L32.95 0L31.64 0L27.28-6.94L27.23-6.94L27.23 0L26.11 0L26.11-8.58L27.52-8.58ZM41.16-3.61L38.53-3.61L38.53-4.59L42.28-4.59L42.28 0L41.53 0L41.25-1.08Q40.27 0.09 38.44 0.14L38.44 0.14Q36.70 0.14 35.77-0.75L35.77-0.75Q34.36-2.06 34.41-4.36L34.41-4.36Q34.73-8.63 38.48-8.81L38.48-8.81Q41.67-8.63 42.14-6L42.14-6L41.02-6Q40.55-7.78 38.44-7.83L38.44-7.83Q35.77-7.64 35.63-4.31L35.63-4.31Q35.63-0.75 38.48-0.75L38.48-0.75Q39.52-0.75 40.27-1.31L40.27-1.31Q41.20-2.06 41.16-3.61L41.16-3.61ZM50.34-6.09L50.34-6.09L49.27-6.09Q49.17-7.73 47.11-7.83L47.11-7.83Q45.19-7.78 45.19-6.33L45.19-6.33Q45.19-5.39 46.22-5.25L46.22-5.25L48.66-4.69Q50.58-4.22 50.58-2.34L50.58-2.34Q50.53 0.05 47.20 0.14L47.20 0.14Q45.38 0.14 44.63-0.61L44.63-0.61Q43.69-1.31 43.73-2.77L43.73-2.77L44.86-2.77Q44.91-0.80 47.20-0.75L47.20-0.75Q49.45-0.80 49.50-2.20L49.50-2.20Q49.69-3.38 47.63-3.75L47.63-3.75L45.84-4.13Q44.02-4.64 44.02-6.19L44.02-6.19Q44.16-8.72 47.02-8.81L47.02-8.81Q50.25-8.81 50.34-6.09ZM53.20-5.06L57.70-5.06L57.70-8.58L58.88-8.58L58.88 0L57.70 0L57.70-3.98L53.20-3.98L53.20 0L52.03 0L52.03-8.58L53.20-8.58L53.20-5.06ZM66.33 0L65.48-2.48L62.02-2.48L61.13 0L59.95 0L63.19-8.58L64.50-8.58L67.59 0L66.33 0ZM63.75-7.31L62.39-3.52L65.06-3.52L63.80-7.31L63.75-7.31ZM76.97-1.08L76.08-1.78L76.69-2.48L77.77-1.64Q78.75-2.63 78.75-4.27L78.75-4.27Q78.56-7.64 75.75-7.83L75.75-7.83Q72.89-7.69 72.75-4.27L72.75-4.27Q72.89-0.94 75.75-0.80L75.75-0.80Q76.45-0.80 76.97-1.08L76.97-1.08ZM78.70-0.94L79.83-0.05L79.27 0.56L77.95-0.33Q77.11 0.14 75.75 0.14L75.75 0.14Q71.81 0 71.53-4.27L71.53-4.27Q71.77-8.72 75.75-8.81L75.75-8.81Q79.64-8.67 79.92-4.27L79.92-4.27Q79.88-2.20 78.70-0.94L78.70-0.94ZM81.47-8.58L82.64-8.58L82.64 0L81.47 0L81.47-8.58ZM90.28 0L89.44-2.48L85.97-2.48L85.08 0L83.91 0L87.14-8.58L88.45-8.58L91.55 0L90.28 0ZM87.70-7.31L86.34-3.52L89.02-3.52L87.75-7.31L87.70-7.31ZM93.98-8.58L98.30-1.64L98.30-8.58L99.42-8.58L99.42 0L98.11 0L93.75-6.94L93.70-6.94L93.70 0L92.58 0L92.58-8.58L93.98-8.58ZM103.41-7.59L100.50-7.59L100.50-8.58L107.44-8.58L107.44-7.59L104.53-7.59L104.53 0L103.41 0L103.41-7.59ZM114.14-3.19L114.14-8.58L115.31-8.58L115.31-3.05Q115.17 0.05 111.80 0.14L111.80 0.14Q108.66 0.05 108.52-2.86L108.52-2.86L108.52-8.58L109.69-8.58L109.69-3.19Q109.73-0.84 111.84-0.80L111.84-0.80Q114.14-0.84 114.14-3.19L114.14-3.19Z" transform="translate(-0.515625, 8.8125)"></path></g></g></g></g></g><defs v-gra="od"></defs></svg>